<svg width="301" height="228" fill="none" xmlns="http://www.w3.org/2000/svg"><path opacity=".2" d="M10.95 289.55c-14.6-14.6-14.6-38.3 0-52.9l225.7-225.7c14.6-14.6 38.3-14.6 52.9 0 14.6 14.6 14.6 38.3 0 52.9l-225.7 225.7c-14.6 14.6-38.3 14.6-52.9 0z" fill="url(#paint0_linear_236_51)"/><path opacity=".4" d="M198.95 70.25l-86.3 86.3c-5 5-13 5-18 0s-5-13 0-18l86.3-86.3c5-5 13-5 18 0s5 13 0 18z" fill="url(#paint1_linear_236_51)"/><defs><linearGradient id="paint0_linear_236_51" x1="10.976" y1="289.534" x2="289.625" y2="10.884" gradientUnits="userSpaceOnUse"><stop stop-color="#5E5749"/><stop offset="1" stop-color="#9F9B89"/></linearGradient><linearGradient id="paint1_linear_236_51" x1="107.041" y1="160.757" x2="80.389" y2="122.986" gradientUnits="userSpaceOnUse"><stop stop-color="#888071"/><stop offset="1" stop-color="#C9C6B9"/></linearGradient></defs></svg>