<svg width="135" height="130" fill="none" xmlns="http://www.w3.org/2000/svg"><g opacity=".3"><path opacity=".3" d="M17.003 8.486c0 4.752-3.741 8.485-8.502 8.485C3.741 16.971 0 13.238 0 8.486 0 3.734 3.74 0 8.501 0c4.761 0 8.502 3.734 8.502 8.486z" fill="url(#paint0_linear_9_217)"/><path opacity=".3" d="M67.33 16.971c4.695 0 8.501-3.799 8.501-8.485C75.831 3.799 72.025 0 67.33 0c-4.695 0-8.501 3.8-8.501 8.486 0 4.686 3.806 8.485 8.501 8.485z" fill="url(#paint1_linear_9_217)"/><path opacity=".3" d="M126.499 16.971c4.695 0 8.501-3.799 8.501-8.485C135 3.799 131.194 0 126.499 0c-4.695 0-8.502 3.8-8.502 8.486 0 4.686 3.807 8.485 8.502 8.485z" fill="url(#paint2_linear_9_217)"/></g><g opacity=".3"><path opacity=".3" d="M17.003 64.83c0 4.752-3.741 8.486-8.502 8.486C3.741 73.316 0 69.582 0 64.83c0-4.752 3.74-8.485 8.501-8.485 4.761 0 8.502 4.073 8.502 8.485z" fill="url(#paint3_linear_9_217)"/><path opacity=".3" d="M67.33 73.316c4.695 0 8.501-3.8 8.501-8.486 0-4.686-3.806-8.485-8.501-8.485-4.695 0-8.501 3.799-8.501 8.485 0 4.687 3.806 8.486 8.501 8.486z" fill="url(#paint4_linear_9_217)"/><path opacity=".3" d="M126.499 73.316c4.695 0 8.501-3.8 8.501-8.486 0-4.686-3.806-8.485-8.501-8.485-4.695 0-8.502 3.799-8.502 8.485 0 4.687 3.807 8.486 8.502 8.486z" fill="url(#paint5_linear_9_217)"/></g><g opacity=".3"><path opacity=".3" d="M17.003 121.514c0 4.752-3.741 8.486-8.502 8.486C3.741 130 0 126.266 0 121.514c0-4.752 3.74-8.485 8.501-8.485 4.761 0 8.502 3.733 8.502 8.485z" fill="url(#paint6_linear_9_217)"/><path opacity=".3" d="M75.831 121.514c0 4.752-3.74 8.486-8.501 8.486-4.76 0-8.501-3.734-8.501-8.486 0-4.752 3.74-8.485 8.501-8.485 4.76 0 8.501 3.733 8.501 8.485z" fill="url(#paint7_linear_9_217)"/><path opacity=".3" d="M135 121.514c0 4.752-3.741 8.486-8.501 8.486-4.761 0-8.502-3.734-8.502-8.486 0-4.752 3.741-8.485 8.502-8.485 4.42 0 8.501 3.733 8.501 8.485z" fill="url(#paint8_linear_9_217)"/></g><defs><linearGradient id="paint0_linear_9_217" x1="-53.192" y1="-141.55" x2="75.009" y2="171.467" gradientUnits="userSpaceOnUse"><stop offset="0" stop-color="#95A2B9"/><stop offset=".279" stop-color="#8792AD"/><stop offset=".819" stop-color="#616A8C"/><stop offset="1" stop-color="#535B80"/></linearGradient><linearGradient id="paint1_linear_9_217" x1="-3.054" y1="-163.011" x2="125.146" y2="150.005" gradientUnits="userSpaceOnUse"><stop offset="0" stop-color="#95A2B9"/><stop offset=".279" stop-color="#8792AD"/><stop offset=".819" stop-color="#616A8C"/><stop offset="1" stop-color="#535B80"/></linearGradient><linearGradient id="paint2_linear_9_217" x1="47.084" y1="-184.472" x2="175.284" y2="128.544" gradientUnits="userSpaceOnUse"><stop offset="0" stop-color="#95A2B9"/><stop offset=".279" stop-color="#8792AD"/><stop offset=".819" stop-color="#616A8C"/><stop offset="1" stop-color="#535B80"/></linearGradient><linearGradient id="paint3_linear_9_217" x1="-73.07" y1="-133.408" x2="55.131" y2="179.608" gradientUnits="userSpaceOnUse"><stop offset="0" stop-color="#95A2B9"/><stop offset=".279" stop-color="#8792AD"/><stop offset=".819" stop-color="#616A8C"/><stop offset="1" stop-color="#535B80"/></linearGradient><linearGradient id="paint4_linear_9_217" x1="-22.932" y1="-154.869" x2="105.268" y2="158.147" gradientUnits="userSpaceOnUse"><stop offset="0" stop-color="#95A2B9"/><stop offset=".279" stop-color="#8792AD"/><stop offset=".819" stop-color="#616A8C"/><stop offset="1" stop-color="#535B80"/></linearGradient><linearGradient id="paint5_linear_9_217" x1="27.206" y1="-176.33" x2="155.407" y2="136.686" gradientUnits="userSpaceOnUse"><stop offset="0" stop-color="#95A2B9"/><stop offset=".279" stop-color="#8792AD"/><stop offset=".819" stop-color="#616A8C"/><stop offset="1" stop-color="#535B80"/></linearGradient><linearGradient id="paint6_linear_9_217" x1="-92.95" y1="-125.27" x2="35.253" y2="187.752" gradientUnits="userSpaceOnUse"><stop offset="0" stop-color="#95A2B9"/><stop offset=".279" stop-color="#8792AD"/><stop offset=".819" stop-color="#616A8C"/><stop offset="1" stop-color="#535B80"/></linearGradient><linearGradient id="paint7_linear_9_217" x1="-42.812" y1="-146.732" x2="85.391" y2="166.29" gradientUnits="userSpaceOnUse"><stop offset="0" stop-color="#95A2B9"/><stop offset=".279" stop-color="#8792AD"/><stop offset=".819" stop-color="#616A8C"/><stop offset="1" stop-color="#535B80"/></linearGradient><linearGradient id="paint8_linear_9_217" x1="7.326" y1="-168.194" x2="135.529" y2="144.828" gradientUnits="userSpaceOnUse"><stop offset="0" stop-color="#95A2B9"/><stop offset=".279" stop-color="#8792AD"/><stop offset=".819" stop-color="#616A8C"/><stop offset="1" stop-color="#535B80"/></linearGradient></defs></svg>